<svg version="1.1" id="Layer_1" xmlns="http://www.w3.org/2000/svg" xmlns:xlink="http://www.w3.org/1999/xlink" x="0px" y="0px"
	 width="100%" viewBox="0 0 1254 1254" enable-background="new 0 0 1254 1254" xml:space="preserve">
<path fill="#044E69" opacity="1.000000" stroke="none" 
	d="
M829.000000,1255.000000 
	C552.666687,1255.000000 276.833344,1255.000000 1.000000,1255.000000 
	C1.000000,837.000000 1.000000,419.000000 1.000000,1.000000 
	C419.000000,1.000000 837.000000,1.000000 1255.000000,1.000000 
	C1255.000000,419.000000 1255.000000,837.000000 1255.000000,1255.000000 
	C1113.166626,1255.000000 971.333313,1255.000000 829.000000,1255.000000 
M393.506317,502.596069 
	C393.506317,502.596069 393.558319,502.730804 393.253479,503.227325 
	C393.341095,503.792419 393.428741,504.357483 393.320435,505.618408 
	C393.369141,506.094696 393.417847,506.571014 393.235901,507.950409 
	C393.318054,513.274902 393.400208,518.599426 393.318695,524.833313 
	C393.377228,527.907532 393.435760,530.981812 393.269806,534.845642 
	C393.351471,536.201355 393.433136,537.557068 393.340851,539.816162 
	C393.405487,542.568787 393.470093,545.321411 393.287537,548.917114 
	C393.356018,551.251709 393.424530,553.586365 393.322266,556.801392 
	C393.382568,558.887268 393.442871,560.973206 393.269989,563.956604 
	C393.368958,568.601074 393.467926,573.245605 393.374054,578.705994 
	C392.869720,581.652222 393.854767,582.817993 397.081146,582.759949 
	C407.399139,582.574280 417.722839,582.721924 428.044281,582.706909 
	C457.338867,582.664429 486.633453,582.605225 516.692444,582.748230 
	C517.458130,584.019714 518.871948,585.282715 518.888733,586.564026 
	C519.046082,598.561279 519.139954,610.565674 518.866577,622.559204 
	C518.753418,627.523010 518.135437,632.565918 517.006897,637.400085 
	C512.278992,657.652954 497.008331,670.665955 476.933350,670.773987 
	C430.769745,671.022461 384.602692,671.028625 338.439331,670.750793 
	C315.960724,670.615540 298.762207,658.569519 292.637054,638.787109 
	C290.503418,631.896057 289.461090,624.407410 289.397491,617.178772 
	C289.077911,580.849304 289.232178,544.515564 289.250183,508.183319 
	C289.261566,485.185120 288.813904,462.171875 289.490662,439.192413 
	C290.419220,407.663666 310.643585,388.662994 342.001068,388.710388 
	C372.166718,388.755951 402.332489,388.729828 432.498138,388.765320 
	C448.329254,388.783966 464.174500,388.467072 479.987579,389.028290 
	C497.430420,389.647369 511.837830,401.458160 516.260437,418.331482 
	C517.854004,424.411194 518.296875,430.792542 519.093262,437.895508 
	C519.165161,439.936920 519.237122,441.978302 519.071960,444.623199 
	C519.379211,445.073334 519.686462,445.523468 520.904663,446.214386 
	C548.599792,446.146454 576.294922,446.078491 604.815613,445.690369 
	C604.913635,438.545959 605.155945,431.400085 605.083496,424.257416 
	C604.832520,399.543518 600.017212,375.879242 586.626465,354.787109 
	C567.256287,324.276642 538.942444,308.458710 502.296112,305.543884 
	C499.972717,305.441925 497.649353,305.251678 495.325928,305.250916 
	C437.645569,305.232208 379.965210,305.228027 322.284851,305.253021 
	C320.144043,305.253937 318.003326,305.574188 314.975311,305.537140 
	C308.384888,306.399506 301.709839,306.851013 295.217072,308.187683 
	C229.497208,321.717712 204.156189,376.707428 202.837296,425.934875 
	C202.790482,427.763153 202.703415,429.591431 202.702728,431.419708 
	C202.683243,483.313629 202.639053,535.207520 202.679352,587.101440 
	C202.692520,604.058777 202.929337,621.015991 202.906525,638.867188 
	C203.696930,657.558472 207.915863,675.431091 216.149887,692.243164 
	C230.108566,720.743713 252.576294,739.212524 283.486603,748.664917 
	C295.644440,750.431641 307.788849,753.608704 319.962402,753.724609 
	C377.254822,754.269775 434.555603,754.080933 491.852234,753.854736 
	C499.592438,753.824219 507.325989,752.100037 515.874023,751.171753 
	C536.777100,746.748901 555.209229,737.533997 570.173706,722.164429 
	C593.008301,698.711548 604.035034,669.916260 604.697998,637.698547 
	C605.613220,593.220215 605.044434,548.711304 605.087158,504.215424 
	C605.087891,503.440247 604.787109,502.664795 604.576294,501.643677 
	C602.908875,501.643677 601.422363,501.643250 599.935913,501.643738 
	C545.773254,501.661346 491.610626,501.659393 437.448029,501.711792 
	C425.295227,501.723541 413.142609,501.925659 400.169983,501.864014 
	C398.778931,501.929962 397.387878,501.995911 395.371613,501.826752 
	C394.788269,502.054199 394.204926,502.281647 393.506317,502.596069 
M454.947235,978.999268 
	C454.947235,978.999268 454.971344,978.945007 455.771942,979.179199 
	C461.380066,979.204224 466.992249,979.344543 472.592621,979.148560 
	C473.606079,979.113098 474.571289,977.698547 475.693024,976.002747 
	C475.688599,932.025940 475.684174,888.049072 476.492401,843.471741 
	C493.424591,843.471741 510.356781,843.471741 527.420898,843.471741 
	C527.420898,832.192383 527.420898,821.497986 527.420898,810.717896 
	C480.934601,810.717896 434.811798,810.717896 388.680023,810.717896 
	C388.680023,821.969116 388.680023,832.755798 389.382172,844.137146 
	C391.322784,844.420837 393.261963,844.937866 395.204285,844.950073 
	C407.198273,845.025696 419.193024,844.984497 431.187500,844.988464 
	C437.990509,844.990723 437.999084,844.996216 437.999847,851.902527 
	C438.004242,892.050720 437.981934,932.199036 438.066559,972.347046 
	C438.071136,974.526184 438.957001,976.703552 439.732849,978.729248 
	C439.732849,978.729248 440.067810,978.695007 440.736755,979.140808 
	C445.464844,979.075806 450.192902,979.010864 454.947235,978.999268 
M622.902161,979.164124 
	C626.594788,979.070496 630.287415,978.976868 634.647522,979.100830 
	C635.104370,979.029724 635.561218,978.958679 636.800293,979.059631 
	C637.862183,979.008301 638.924133,978.956970 640.724854,979.135437 
	C641.486816,979.061646 642.248718,978.987854 643.828369,979.083557 
	C645.213379,979.023438 646.598328,978.963318 648.862305,979.130798 
	C651.106140,979.130798 653.350037,979.130798 655.879761,979.130798 
	C655.879761,959.550537 655.831970,940.747559 655.943237,921.945496 
	C655.956360,919.717041 656.348389,917.226013 657.393188,915.307922 
	C674.116577,884.606079 690.982483,853.981934 707.792847,823.327393 
	C710.054626,819.202942 712.190979,815.009644 714.658020,810.331299 
	C701.486572,810.331299 689.168640,810.209900 676.859131,810.477356 
	C675.231934,810.512756 672.974426,812.164490 672.148987,813.686157 
	C664.612793,827.579163 657.338928,841.614319 649.968079,855.597168 
	C646.049377,863.031006 642.090393,870.443665 637.911316,878.314758 
	C626.654114,857.417114 615.776611,837.224426 604.794800,816.319336 
	C603.326843,811.128906 599.915100,809.762085 594.695984,810.219360 
	C588.759705,810.739380 582.739807,810.297913 576.756226,810.286804 
	C571.539307,810.277161 566.322388,810.284790 560.198975,810.284790 
	C567.518372,823.365234 574.304016,835.491699 581.289734,848.323730 
	C592.962769,869.622803 604.751709,890.859924 616.192017,912.283264 
	C618.050354,915.763306 619.159058,920.048889 619.255188,923.995178 
	C619.688416,941.788940 619.632446,959.594604 619.635254,978.037903 
	C620.089783,978.367737 620.544373,978.697510 621.201721,979.251526 
	C621.201721,979.251526 621.652222,979.254150 621.652222,979.254150 
	C621.652222,979.254150 621.993286,978.996155 622.902161,979.164124 
M878.244751,946.660278 
	C849.335083,946.660278 820.425415,946.660278 790.942139,946.660278 
	C790.942139,900.793884 790.942139,855.749878 790.942139,810.690063 
	C778.470154,810.690063 766.582397,810.690063 754.720093,810.690063 
	C754.720093,867.136414 754.720093,923.177063 754.720093,979.109741 
	C796.753723,979.109741 838.334595,979.109741 880.051025,979.109741 
	C880.051025,968.830200 880.051025,958.870544 880.201721,948.215759 
	C879.812500,947.766113 879.423340,947.316406 878.244751,946.660278 
M669.780396,754.000183 
	C756.760864,754.002136 843.741394,754.018127 930.721863,753.977539 
	C937.199463,753.974548 943.676941,753.566040 950.774231,753.522644 
	C951.184448,753.417480 951.594604,753.312317 952.911255,753.360107 
	C962.964417,751.287842 973.017578,749.215576 983.822327,747.080994 
	C1000.028870,741.617065 1014.418030,733.158203 1026.368652,720.842102 
	C1050.285034,696.194336 1060.598511,665.858154 1060.877930,632.307922 
	C1061.446777,564.008850 1061.319458,495.699860 1060.890137,427.398682 
	C1060.724731,401.080170 1053.547119,376.397736 1038.494385,354.463348 
	C1024.257935,333.718384 1005.133240,319.387543 980.500183,311.399597 
	C978.669678,310.935638 976.839111,310.471710 974.560852,309.777863 
	C974.393005,309.778229 974.225220,309.778595 973.467285,309.351715 
	C970.981689,308.885010 968.496033,308.418274 965.551575,307.755096 
	C965.551575,307.755096 965.055054,307.805939 964.418030,307.423279 
	C959.265442,306.907227 954.112915,306.391174 948.341858,305.685059 
	C947.914978,305.721313 947.488098,305.757538 946.307007,305.454742 
	C945.145142,305.385132 943.983215,305.254761 942.821350,305.254517 
	C852.031860,305.236908 761.242371,305.226105 670.452881,305.251709 
	C669.004456,305.252136 667.556213,305.708649 665.598145,306.619873 
	C665.400391,308.754150 665.031128,310.888367 665.029907,313.022736 
	C664.997375,368.353180 665.001892,423.683594 665.002625,479.014038 
	C665.003845,568.342712 664.995117,657.671326 665.074585,746.999939 
	C665.076660,749.325256 666.049988,751.649719 667.060974,753.946960 
	C667.701904,753.917236 668.342773,753.887451 669.780396,754.000183 
M963.947144,843.133972 
	C978.047119,843.164917 992.147217,843.252075 1006.246948,843.212280 
	C1022.823181,843.165466 1039.399170,843.008362 1056.700073,842.463074 
	C1056.700073,831.990906 1056.700073,821.518738 1056.700073,810.687439 
	C1013.163879,810.687439 969.763977,810.687439 926.255493,810.687439 
	C926.255493,867.016174 926.255493,923.052063 926.255493,979.015320 
	C970.078308,979.015320 1013.477905,979.015320 1056.810547,979.015320 
	C1056.810547,968.088318 1056.810547,957.510742 1056.810547,946.448608 
	C1025.258423,946.448608 994.036377,946.448608 962.651733,946.448608 
	C962.651733,934.184387 962.651733,922.414490 962.651733,910.025940 
	C989.508057,910.025940 1016.057373,910.025940 1042.575073,910.025940 
	C1042.575073,898.991516 1042.575073,888.580872 1042.575073,877.738892 
	C1015.826904,877.738892 989.401184,877.738892 963.015381,877.738892 
	C963.015381,865.882935 963.015381,854.465454 963.947144,843.133972 
M232.205597,810.934326 
	C216.814728,813.581970 207.134491,824.724976 206.930832,840.347717 
	C206.770142,852.675903 206.778580,865.008301 206.881851,877.337402 
	C207.055054,898.012695 219.291702,910.036987 240.113373,910.101379 
	C261.107941,910.166321 282.102783,910.151917 303.097229,910.239990 
	C308.215454,910.261475 310.128387,912.072510 310.215515,917.090576 
	C310.348572,924.752991 310.250916,932.419373 310.242859,940.084106 
	C310.238129,944.581787 308.113678,946.755310 303.478485,946.736267 
	C285.483276,946.662415 267.487091,946.636902 249.492401,946.758728 
	C244.666656,946.791382 242.928131,944.518738 243.042328,940.025269 
	C243.146194,935.938538 243.064331,931.847107 243.064331,927.611206 
	C230.692169,927.611206 218.941605,927.611206 206.862305,927.611206 
	C206.862305,934.226013 206.844055,940.540344 206.865662,946.854492 
	C206.935455,967.240417 218.844513,979.233948 239.139496,979.256531 
	C264.466370,979.284729 289.793365,979.268066 315.120178,979.214111 
	C334.165344,979.173584 346.424652,967.047668 346.601135,947.987671 
	C346.722961,934.825439 346.652100,921.661072 346.607635,908.497864 
	C346.586395,902.205322 345.214661,896.307007 341.419037,891.086609 
	C334.165527,881.110291 323.934570,877.808350 312.181152,877.804016 
	C291.852997,877.796631 271.524780,877.805603 251.196655,877.779968 
	C244.955566,877.772095 243.153610,876.002014 243.086075,869.808899 
	C243.017014,863.477783 243.215378,857.138611 242.957550,850.816772 
	C242.811325,847.231445 243.873978,844.665527 248.014099,843.177795 
	C267.304199,843.141785 286.594330,843.105713 306.507080,843.463013 
	C307.792297,845.742920 309.780609,847.901978 310.198303,850.331055 
	C310.828613,853.996704 310.362701,857.850891 310.362701,861.648987 
	C322.757568,861.648987 334.484375,861.648987 346.212585,861.648987 
	C346.212585,853.203735 346.735840,845.044922 346.095703,836.978333 
	C345.008545,823.279541 335.465942,813.537720 321.015594,810.866821 
	C319.530060,810.719482 318.044769,810.445984 316.558990,810.443665 
	C290.011444,810.401733 263.463867,810.383850 236.916306,810.402954 
	C235.612259,810.403931 234.308487,810.790161 232.205597,810.934326 
z"/>
<path fill="#DCE203" opacity="1.000000" stroke="none" 
	d="
M503.058777,305.859497 
	C538.942444,308.458710 567.256287,324.276642 586.626465,354.787109 
	C600.017212,375.879242 604.832520,399.543518 605.083496,424.257416 
	C605.155945,431.400085 604.913635,438.545959 604.069336,445.607727 
	C601.183228,445.348938 599.043518,445.023438 596.903320,445.019684 
	C574.099609,444.979675 551.295410,444.914001 528.492493,445.052002 
	C523.891235,445.079803 519.997986,445.120697 520.771729,438.792572 
	C520.834900,438.276276 519.793152,437.624847 519.264832,437.036224 
	C518.296875,430.792542 517.854004,424.411194 516.260437,418.331482 
	C511.837830,401.458160 497.430420,389.647369 479.987579,389.028290 
	C464.174500,388.467072 448.329254,388.783966 432.498138,388.765320 
	C402.332489,388.729828 372.166718,388.755951 342.001068,388.710388 
	C310.643585,388.662994 290.419220,407.663666 289.490662,439.192413 
	C288.813904,462.171875 289.261566,485.185120 289.250183,508.183319 
	C289.232178,544.515564 289.077911,580.849304 289.397491,617.178772 
	C289.461090,624.407410 290.503418,631.896057 292.637054,638.787109 
	C298.762207,658.569519 315.960724,670.615540 338.439331,670.750793 
	C384.602692,671.028625 430.769745,671.022461 476.933350,670.773987 
	C497.008331,670.665955 512.278992,657.652954 517.006897,637.400085 
	C518.135437,632.565918 518.753418,627.523010 518.866577,622.559204 
	C519.139954,610.565674 519.046082,598.561279 518.888733,586.564026 
	C518.871948,585.282715 517.458130,584.019714 516.041626,582.321838 
	C513.133911,581.590759 510.877289,581.023621 508.619873,581.020447 
	C472.691711,580.970276 436.763031,580.915955 400.835602,581.091492 
	C396.194244,581.114197 394.867615,579.649414 394.914124,575.110046 
	C395.118591,555.152039 394.988831,535.190674 395.005310,515.230530 
	C395.009521,510.130402 393.330505,504.222565 400.796417,502.485260 
	C400.890350,502.463440 400.926666,502.194000 400.989868,502.040161 
	C413.142609,501.925659 425.295227,501.723541 437.448029,501.711792 
	C491.610626,501.659393 545.773254,501.661346 599.935913,501.643738 
	C601.422363,501.643250 602.908875,501.643677 604.576294,501.643677 
	C604.787109,502.664795 605.087891,503.440247 605.087158,504.215424 
	C605.044434,548.711304 605.613220,593.220215 604.697998,637.698547 
	C604.035034,669.916260 593.008301,698.711548 570.173706,722.164429 
	C555.209229,737.533997 536.777100,746.748901 515.160889,750.908569 
	C512.658569,750.507507 510.854614,750.150330 509.082916,750.270020 
	C501.675690,750.770508 494.279419,751.908081 486.876862,751.926941 
	C430.441833,752.070862 374.005981,752.097351 317.571320,751.894958 
	C310.334412,751.869019 303.106445,750.285095 295.867676,749.483093 
	C291.558197,749.005554 287.235748,748.645325 282.919128,748.232361 
	C252.576294,739.212524 230.108566,720.743713 216.149887,692.243164 
	C207.915863,675.431091 203.696930,657.558472 203.214478,638.079224 
	C203.681793,635.816528 203.980057,634.341858 203.980591,632.867004 
	C204.004807,565.339966 204.010315,497.812927 203.963638,430.285919 
	C203.962418,428.529846 203.357910,426.774200 203.034744,425.018341 
	C204.156189,376.707428 229.497208,321.717712 295.217072,308.187683 
	C301.709839,306.851013 308.384888,306.399506 315.748627,305.915527 
	C318.312408,306.525208 320.102722,306.957550 321.893341,306.958588 
	C380.375885,306.992676 438.858429,306.995880 497.340942,306.936737 
	C499.247253,306.934814 501.152863,306.234344 503.058777,305.859497 
z"/>
<path fill="#DCE203" opacity="1.000000" stroke="none" 
	d="
M947.061218,305.793793 
	C947.488098,305.757538 947.914978,305.721313 948.911255,306.048889 
	C954.672058,306.877106 959.863586,307.341522 965.055054,307.805939 
	C965.055054,307.805939 965.551575,307.755096 965.907471,308.184937 
	C968.861450,309.002838 971.459473,309.390900 974.057495,309.778992 
	C974.225220,309.778595 974.393005,309.778229 974.895996,310.207886 
	C977.168762,311.036652 979.106445,311.435333 981.044128,311.834045 
	C1005.133240,319.387543 1024.257935,333.718384 1038.494385,354.463348 
	C1053.547119,376.397736 1060.724731,401.080170 1060.890137,427.398682 
	C1061.319458,495.699860 1061.446777,564.008850 1060.877930,632.307922 
	C1060.598511,665.858154 1050.285034,696.194336 1026.368652,720.842102 
	C1014.418030,733.158203 1000.028870,741.617065 983.176880,746.876709 
	C982.062622,746.539856 981.561707,746.225525 981.129517,746.301453 
	C972.212036,747.869507 963.293213,749.435303 954.404907,751.157227 
	C953.506226,751.331299 952.800293,752.500000 952.004883,753.207153 
	C951.594604,753.312317 951.184448,753.417480 950.146240,753.139893 
	C947.734924,752.506531 945.951721,752.036987 944.168335,752.036499 
	C852.432434,752.010803 760.696594,752.024963 668.947388,751.578308 
	C668.928040,740.234314 669.048218,729.344849 668.881958,718.459900 
	C668.700134,706.553955 668.155212,694.653503 667.981018,682.747559 
	C667.927979,679.120850 668.895691,675.479187 668.841248,671.852661 
	C668.719727,663.767090 667.929565,655.684509 667.984863,647.604675 
	C668.106018,629.887207 668.727661,612.173096 668.849609,594.455627 
	C668.904419,586.494568 667.954895,578.527283 667.990906,570.565247 
	C668.040466,559.602051 668.892273,548.640137 668.856934,537.679443 
	C668.806152,521.950806 668.088562,506.224792 668.002319,490.495758 
	C667.953491,481.592255 668.890259,472.683899 668.857788,463.779663 
	C668.813904,451.746979 668.042969,439.716858 668.004822,427.684326 
	C667.975525,418.455078 668.820496,409.225311 668.884033,399.993103 
	C669.027832,379.117706 668.937073,358.240662 668.924194,337.364288 
	C668.919373,329.616486 668.566345,321.854980 668.921265,314.124908 
	C669.253418,306.891724 669.573303,306.904816 676.990234,306.905243 
	C764.608521,306.910248 852.226807,306.924713 939.845093,306.873810 
	C942.250671,306.872437 944.655823,306.169556 947.061218,305.793793 
M976.558960,620.893677 
	C976.697876,620.430237 976.958313,619.966919 976.958435,619.503479 
	C976.981323,560.738281 976.997742,501.973083 976.912903,443.208099 
	C976.910828,441.812592 975.764404,440.418732 974.869507,438.362823 
	C974.752197,437.900177 974.634827,437.437531 974.663940,436.174988 
	C972.724426,415.711090 964.164856,399.562805 943.877075,392.361420 
	C936.841125,389.863892 928.915283,388.986481 921.382812,388.923370 
	C881.908508,388.592407 842.430054,388.735321 802.953003,388.766724 
	C786.303162,388.779968 769.653442,388.923645 752.282471,389.317200 
	C751.856079,391.331238 751.059998,393.344788 751.057251,395.359375 
	C750.988525,446.466125 751.001831,497.573029 751.003174,548.679871 
	C751.004211,587.467773 750.976074,626.255859 751.105103,665.043335 
	C751.111633,667.011353 752.484680,668.974792 754.130676,670.915710 
	C810.399902,670.891907 866.669067,670.870178 922.938293,670.843506 
	C952.407471,670.829529 972.773926,652.653809 974.676880,624.169495 
	C974.813477,623.120850 974.950073,622.072205 975.547974,621.022461 
	C975.547974,621.022461 976.009155,621.014709 976.558960,620.893677 
z"/>
<path fill="#DBE204" opacity="1.000000" stroke="none" 
	d="
M321.761444,811.109741 
	C335.465942,813.537720 345.008545,823.279541 346.095703,836.978333 
	C346.735840,845.044922 346.212585,853.203735 346.212585,861.648987 
	C334.484375,861.648987 322.757568,861.648987 310.362701,861.648987 
	C310.362701,857.850891 310.828613,853.996704 310.198303,850.331055 
	C309.780609,847.901978 307.792297,845.742920 306.180389,842.985718 
	C305.245300,842.337708 304.637115,842.018860 304.028442,842.017883 
	C285.985718,841.988647 267.942902,841.974976 249.900330,842.033813 
	C248.964157,842.036865 248.030151,842.702087 247.095154,843.059082 
	C243.873978,844.665527 242.811325,847.231445 242.957550,850.816772 
	C243.215378,857.138611 243.017014,863.477783 243.086075,869.808899 
	C243.153610,876.002014 244.955566,877.772095 251.196655,877.779968 
	C271.524780,877.805603 291.852997,877.796631 312.181152,877.804016 
	C323.934570,877.808350 334.165527,881.110291 341.419037,891.086609 
	C345.214661,896.307007 346.586395,902.205322 346.607635,908.497864 
	C346.652100,921.661072 346.722961,934.825439 346.601135,947.987671 
	C346.424652,967.047668 334.165344,979.173584 315.120178,979.214111 
	C289.793365,979.268066 264.466370,979.284729 239.139496,979.256531 
	C218.844513,979.233948 206.935455,967.240417 206.865662,946.854492 
	C206.844055,940.540344 206.862305,934.226013 206.862305,927.611206 
	C218.941605,927.611206 230.692169,927.611206 243.064331,927.611206 
	C243.064331,931.847107 243.146194,935.938538 243.042328,940.025269 
	C242.928131,944.518738 244.666656,946.791382 249.492401,946.758728 
	C267.487091,946.636902 285.483276,946.662415 303.478485,946.736267 
	C308.113678,946.755310 310.238129,944.581787 310.242859,940.084106 
	C310.250916,932.419373 310.348572,924.752991 310.215515,917.090576 
	C310.128387,912.072510 308.215454,910.261475 303.097229,910.239990 
	C282.102783,910.151917 261.107941,910.166321 240.113373,910.101379 
	C219.291702,910.036987 207.055054,898.012695 206.881851,877.337402 
	C206.778580,865.008301 206.770142,852.675903 206.930832,840.347717 
	C207.134491,824.724976 216.814728,813.581970 232.949768,811.191284 
	C234.666748,811.614990 235.639420,811.926453 236.612366,811.927429 
	C263.540985,811.953979 290.469635,811.961975 317.398163,811.913391 
	C318.853058,811.910767 320.307037,811.389526 321.761444,811.109741 
z"/>
<path fill="#DBE204" opacity="1.000000" stroke="none" 
	d="
M963.015381,843.048035 
	C963.015381,854.465454 963.015381,865.882935 963.015381,877.738892 
	C989.401184,877.738892 1015.826904,877.738892 1042.575073,877.738892 
	C1042.575073,888.580872 1042.575073,898.991516 1042.575073,910.025940 
	C1016.057373,910.025940 989.508057,910.025940 962.651733,910.025940 
	C962.651733,922.414490 962.651733,934.184387 962.651733,946.448608 
	C994.036377,946.448608 1025.258423,946.448608 1056.810547,946.448608 
	C1056.810547,957.510742 1056.810547,968.088318 1056.810547,979.015320 
	C1013.477905,979.015320 970.078308,979.015320 926.255493,979.015320 
	C926.255493,923.052063 926.255493,867.016174 926.255493,810.687439 
	C969.763977,810.687439 1013.163879,810.687439 1056.700073,810.687439 
	C1056.700073,821.518738 1056.700073,831.990906 1055.993652,842.456299 
	C1054.311279,842.302368 1053.335571,842.027466 1052.359497,842.026550 
	C1023.985718,842.000488 995.612000,841.986755 967.238281,842.043335 
	C965.830017,842.046082 964.422974,842.698242 963.015381,843.048035 
z"/>
<path fill="#DAE104" opacity="1.000000" stroke="none" 
	d="
M604.899109,817.031738 
	C615.776611,837.224426 626.654114,857.417114 637.911316,878.314758 
	C642.090393,870.443665 646.049377,863.031006 649.968079,855.597168 
	C657.338928,841.614319 664.612793,827.579163 672.148987,813.686157 
	C672.974426,812.164490 675.231934,810.512756 676.859131,810.477356 
	C689.168640,810.209900 701.486572,810.331299 714.658020,810.331299 
	C712.190979,815.009644 710.054626,819.202942 707.792847,823.327393 
	C690.982483,853.981934 674.116577,884.606079 657.393188,915.307922 
	C656.348389,917.226013 655.956360,919.717041 655.943237,921.945496 
	C655.831970,940.747559 655.879761,959.550537 655.879761,979.130798 
	C653.350037,979.130798 651.106140,979.130798 648.301270,978.701416 
	C645.879639,976.393738 644.276672,976.412537 643.010681,978.914062 
	C642.248718,978.987854 641.486816,979.061646 640.246216,978.719849 
	C638.517761,978.498657 637.267883,978.693176 636.018066,978.887695 
	C635.561218,978.958679 635.104370,979.029724 634.152832,978.643799 
	C630.959229,977.789062 628.255981,977.045471 625.562500,977.079407 
	C622.044800,977.123657 620.908203,975.721497 620.964111,972.331482 
	C621.109375,963.516602 621.007202,954.697571 621.005859,945.880249 
	C621.004456,937.128784 621.005554,928.377258 621.005554,919.625793 
	C620.135803,924.251587 620.165833,928.879761 620.130249,933.507385 
	C620.017700,948.137024 619.880554,962.766418 619.752808,977.395935 
	C619.632446,959.594604 619.688416,941.788940 619.255188,923.995178 
	C619.159058,920.048889 618.050354,915.763306 616.192017,912.283264 
	C604.751709,890.859924 592.962769,869.622803 581.159668,847.614563 
	C575.861084,836.721130 570.684265,826.541138 565.536621,816.346375 
	C564.993103,815.269897 564.621582,814.106506 563.762573,811.968689 
	C571.603943,811.968689 578.514832,811.934814 585.425354,811.978210 
	C592.333069,812.021667 599.686157,810.427429 604.899109,817.031738 
z"/>
<path fill="#C0D411" opacity="1.000000" stroke="none" 
	d="
M946.684082,305.624268 
	C944.655823,306.169556 942.250671,306.872437 939.845093,306.873810 
	C852.226807,306.924713 764.608521,306.910248 676.990234,306.905243 
	C669.573303,306.904816 669.253418,306.891724 668.921265,314.124908 
	C668.566345,321.854980 668.919373,329.616486 668.924194,337.364288 
	C668.937073,358.240662 669.027832,379.117706 668.884033,399.993103 
	C668.820496,409.225311 667.975525,418.455078 668.004822,427.684326 
	C668.042969,439.716858 668.813904,451.746979 668.857788,463.779663 
	C668.890259,472.683899 667.953491,481.592255 668.002319,490.495758 
	C668.088562,506.224792 668.806152,521.950806 668.856934,537.679443 
	C668.892273,548.640137 668.040466,559.602051 667.990906,570.565247 
	C667.954895,578.527283 668.904419,586.494568 668.849609,594.455627 
	C668.727661,612.173096 668.106018,629.887207 667.984863,647.604675 
	C667.929565,655.684509 668.719727,663.767090 668.841248,671.852661 
	C668.895691,675.479187 667.927979,679.120850 667.981018,682.747559 
	C668.155212,694.653503 668.700134,706.553955 668.881958,718.459900 
	C669.048218,729.344849 668.928040,740.234314 668.938782,752.033936 
	C668.956909,753.250000 668.970337,753.553833 668.983704,753.857727 
	C668.342773,753.887451 667.701904,753.917236 666.741211,753.494202 
	C666.372986,730.895874 666.281799,708.750366 666.283508,686.604797 
	C666.291260,586.193481 666.343079,485.782196 666.337952,385.370880 
	C666.336548,358.898010 666.188538,332.425171 666.107849,305.952301 
	C667.556213,305.708649 669.004456,305.252136 670.452881,305.251709 
	C761.242371,305.226105 852.031860,305.236908 942.821350,305.254517 
	C943.983215,305.254761 945.145142,305.385132 946.684082,305.624268 
z"/>
<path fill="#CDD813" opacity="1.000000" stroke="none" 
	d="
M880.051025,948.910950 
	C880.051025,958.870544 880.051025,968.830200 880.051025,979.109741 
	C838.334595,979.109741 796.753723,979.109741 754.720093,979.109741 
	C754.720093,923.177063 754.720093,867.136414 754.720093,810.690063 
	C766.582397,810.690063 778.470154,810.690063 790.942139,810.690063 
	C790.942139,855.749878 790.942139,900.793884 790.942139,946.660278 
	C820.425415,946.660278 849.335083,946.660278 878.590210,947.102783 
	C878.904175,948.001221 878.872742,948.457153 878.388672,948.930603 
	C865.309204,948.625854 852.681946,948.035278 840.055542,948.052551 
	C825.762451,948.072083 811.471375,948.747437 797.176819,948.917236 
	C790.159363,949.000671 789.046143,947.678467 789.045349,940.821777 
	C789.041321,908.673767 789.046875,876.525757 789.047119,844.377747 
	C789.047180,835.049866 788.970337,825.721130 789.076904,816.394470 
	C789.113098,813.226562 787.963379,811.870911 784.705872,811.920410 
	C776.712402,812.041748 768.715332,812.011292 760.720764,811.934326 
	C757.337585,811.901794 755.885681,813.400635 755.927917,816.760132 
	C756.009216,823.222107 755.946472,829.685913 755.946350,836.148926 
	C755.945984,854.438721 755.842407,872.729370 755.984192,891.018066 
	C756.079529,903.315491 756.722412,915.609680 756.747986,927.906128 
	C756.768738,937.869385 756.160950,947.832520 755.984131,957.798340 
	C755.917236,961.573364 756.835205,965.433655 756.322449,969.118469 
	C755.328369,976.262451 755.683777,977.033508 762.742188,977.033997 
	C796.722473,977.036255 830.702820,977.073181 864.682922,976.994080 
	C869.432312,976.983032 874.180420,976.397705 879.019226,976.288086 
	C879.253662,976.549500 879.453247,976.683838 879.529114,976.633057 
	C879.643921,976.556274 879.728210,976.351379 879.730103,976.199646 
	C879.843262,967.103516 879.946655,958.007202 880.051025,948.910950 
z"/>
<path fill="#DAE20C" opacity="1.000000" stroke="none" 
	d="
M669.382080,753.928955 
	C668.970337,753.553833 668.956909,753.250000 668.952148,752.490479 
	C760.696594,752.024963 852.432434,752.010803 944.168335,752.036499 
	C945.951721,752.036987 947.734924,752.506531 949.836365,753.051636 
	C943.676941,753.566040 937.199463,753.974548 930.721863,753.977539 
	C843.741394,754.018127 756.760864,754.002136 669.382080,753.928955 
z"/>
<path fill="#CDD813" opacity="1.000000" stroke="none" 
	d="
M388.680023,843.542480 
	C388.680023,832.755798 388.680023,821.969116 388.680023,810.717896 
	C434.811798,810.717896 480.934601,810.717896 527.420898,810.717896 
	C527.420898,821.497986 527.420898,832.192383 527.420898,843.471741 
	C510.356781,843.471741 493.424591,843.471741 476.074341,843.796631 
	C475.656250,844.121460 475.624237,844.076599 475.830200,843.702881 
	C477.908173,842.904663 479.777161,842.128052 481.652649,842.112000 
	C494.810516,841.999207 507.970612,841.955688 521.127869,842.094360 
	C524.772766,842.132812 526.216553,840.901978 526.110046,837.184204 
	C525.914612,830.360535 525.952209,823.525146 526.096741,816.698975 
	C526.167297,813.365356 525.089233,811.901062 521.526489,811.907532 
	C479.218658,811.984436 436.910614,811.981750 394.602783,811.911438 
	C391.169769,811.905701 389.816895,813.112610 389.909180,816.579041 
	C390.077576,822.904053 390.246826,829.254456 389.864227,835.560791 
	C389.563843,840.512085 391.020569,842.320068 396.235657,842.168213 
	C408.551239,841.809692 420.884491,842.010315 433.209900,842.091919 
	C435.143768,842.104736 437.073914,842.678528 438.536713,843.002441 
	C435.912018,843.023682 433.756317,843.028076 431.600769,843.048340 
	C417.688446,843.178955 403.776093,843.312866 389.566345,843.451477 
	C389.072601,843.485596 388.876312,843.514038 388.680023,843.542480 
z"/>
<path fill="#DAE20C" opacity="1.000000" stroke="none" 
	d="
M283.202881,748.448608 
	C287.235748,748.645325 291.558197,749.005554 295.867676,749.483093 
	C303.106445,750.285095 310.334412,751.869019 317.571320,751.894958 
	C374.005981,752.097351 430.441833,752.070862 486.876862,751.926941 
	C494.279419,751.908081 501.675690,750.770508 509.082916,750.270020 
	C510.854614,750.150330 512.658569,750.507507 514.755127,750.902710 
	C507.325989,752.100037 499.592438,753.824219 491.852234,753.854736 
	C434.555603,754.080933 377.254822,754.269775 319.962402,753.724609 
	C307.788849,753.608704 295.644440,750.431641 283.202881,748.448608 
z"/>
<path fill="#00357B" opacity="1.000000" stroke="none" 
	d="
M665.853027,306.286072 
	C666.188538,332.425171 666.336548,358.898010 666.337952,385.370880 
	C666.343079,485.782196 666.291260,586.193481 666.283508,686.604797 
	C666.281799,708.750366 666.372986,730.895874 666.495850,753.507996 
	C666.049988,751.649719 665.076660,749.325256 665.074585,746.999939 
	C664.995117,657.671326 665.003845,568.342712 665.002625,479.014038 
	C665.001892,423.683594 664.997375,368.353180 665.029907,313.022736 
	C665.031128,310.888367 665.400391,308.754150 665.853027,306.286072 
z"/>
<path fill="#F4F101" opacity="1.000000" stroke="none" 
	d="
M502.677429,305.701691 
	C501.152863,306.234344 499.247253,306.934814 497.340942,306.936737 
	C438.858429,306.995880 380.375885,306.992676 321.893341,306.958588 
	C320.102722,306.957550 318.312408,306.525208 316.192261,306.019806 
	C318.003326,305.574188 320.144043,305.253937 322.284851,305.253021 
	C379.965210,305.228027 437.645569,305.232208 495.325928,305.250916 
	C497.649353,305.251678 499.972717,305.441925 502.677429,305.701691 
z"/>
<path fill="#F4F101" opacity="1.000000" stroke="none" 
	d="
M400.579926,501.952087 
	C400.926666,502.194000 400.890350,502.463440 400.796417,502.485260 
	C393.330505,504.222565 395.009521,510.130402 395.005310,515.230530 
	C394.988831,535.190674 395.118591,555.152039 394.914124,575.110046 
	C394.867615,579.649414 396.194244,581.114197 400.835602,581.091492 
	C436.763031,580.915955 472.691711,580.970276 508.619873,581.020447 
	C510.877289,581.023621 513.133911,581.590759 515.659424,582.223999 
	C486.633453,582.605225 457.338867,582.664429 428.044281,582.706909 
	C417.722839,582.721924 407.399139,582.574280 397.081146,582.759949 
	C393.854767,582.817993 392.869720,581.652222 393.623901,577.930359 
	C393.750214,572.456177 393.626709,567.757629 393.503174,563.059082 
	C393.442871,560.973206 393.382568,558.887268 393.571625,556.035767 
	C393.725555,552.871399 393.630127,550.472717 393.534698,548.074036 
	C393.470093,545.321411 393.405487,542.568787 393.584534,539.089478 
	C393.716919,536.927185 393.605621,535.491638 393.494293,534.056030 
	C393.435760,530.981812 393.377228,527.907532 393.572021,524.013123 
	C393.705719,517.811035 393.586151,512.429199 393.466553,507.047302 
	C393.417847,506.571014 393.369141,506.094696 393.557434,505.015259 
	C393.715729,503.851685 393.637024,503.291260 393.558319,502.730804 
	C393.558319,502.730804 393.506317,502.596069 393.876373,502.649384 
	C394.829895,502.489075 395.413361,502.275452 395.996826,502.061829 
	C397.387878,501.995911 398.778931,501.929962 400.579926,501.952087 
z"/>
<path fill="#F4F101" opacity="1.000000" stroke="none" 
	d="
M475.667969,844.096863 
	C475.684174,888.049072 475.688599,932.025940 475.338806,976.478638 
	C474.604218,976.990601 474.223846,977.026733 473.892578,976.589722 
	C473.961426,934.210388 473.957672,892.304077 474.069794,850.398132 
	C474.075409,848.289612 475.083099,846.183716 475.624237,844.076599 
	C475.624237,844.076599 475.656250,844.121460 475.667969,844.096863 
z"/>
<path fill="#F4F101" opacity="1.000000" stroke="none" 
	d="
M440.067810,978.695068 
	C440.067810,978.695007 439.732849,978.729248 439.598511,978.345825 
	C439.412384,933.363708 439.360626,888.765137 439.407562,844.425903 
	C439.690918,844.672913 439.875549,844.660461 440.166138,844.708618 
	C440.510376,844.826172 440.749878,844.876953 440.990234,845.395142 
	C440.994171,861.197632 441.000092,876.526611 441.002197,891.855591 
	C441.005859,918.348022 441.089081,944.841003 440.927002,971.332458 
	C440.900635,975.641113 442.089508,977.524353 446.571442,977.061707 
	C449.374237,976.772461 452.230957,977.005920 455.053711,977.328491 
	C455.019775,978.083069 454.995544,978.514038 454.971313,978.945007 
	C454.971344,978.945007 454.947235,978.999268 454.485107,978.884888 
	C449.371246,978.745300 444.719543,978.720154 440.067810,978.695068 
z"/>
<path fill="#00357B" opacity="1.000000" stroke="none" 
	d="
M439.308838,844.166504 
	C439.360626,888.765137 439.412384,933.363708 439.448395,978.421997 
	C438.957001,976.703552 438.071136,974.526184 438.066559,972.347046 
	C437.981934,932.199036 438.004242,892.050720 437.999847,851.902527 
	C437.999084,844.996216 437.990509,844.990723 431.187500,844.988464 
	C419.193024,844.984497 407.198273,845.025696 395.204285,844.950073 
	C393.261963,844.937866 391.322784,844.420837 389.031097,843.839844 
	C388.876312,843.514038 389.072601,843.485596 390.020996,843.607666 
	C406.951691,843.894287 423.130249,844.030396 439.308838,844.166504 
z"/>
<path fill="#F4F101" opacity="1.000000" stroke="none" 
	d="
M202.936020,425.476624 
	C203.357910,426.774200 203.962418,428.529846 203.963638,430.285919 
	C204.010315,497.812927 204.004807,565.339966 203.980591,632.867004 
	C203.980057,634.341858 203.681793,635.816528 203.293152,637.632324 
	C202.929337,621.015991 202.692520,604.058777 202.679352,587.101440 
	C202.639053,535.207520 202.683243,483.313629 202.702728,431.419708 
	C202.703415,429.591431 202.790482,427.763153 202.936020,425.476624 
z"/>
<path fill="#CDD813" opacity="1.000000" stroke="none" 
	d="
M321.388519,810.988281 
	C320.307037,811.389526 318.853058,811.910767 317.398163,811.913391 
	C290.469635,811.961975 263.540985,811.953979 236.612366,811.927429 
	C235.639420,811.926453 234.666748,811.614990 233.349274,811.222595 
	C234.308487,810.790161 235.612259,810.403931 236.916306,810.402954 
	C263.463867,810.383850 290.011444,810.401733 316.558990,810.443665 
	C318.044769,810.445984 319.530060,810.719482 321.388519,810.988281 
z"/>
<path fill="#CDD813" opacity="1.000000" stroke="none" 
	d="
M604.846924,816.675537 
	C599.686157,810.427429 592.333069,812.021667 585.425354,811.978210 
	C578.514832,811.934814 571.603943,811.968689 563.762573,811.968689 
	C564.621582,814.106506 564.993103,815.269897 565.536621,816.346375 
	C570.684265,826.541138 575.861084,836.721130 581.059570,847.261841 
	C574.304016,835.491699 567.518372,823.365234 560.198975,810.284790 
	C566.322388,810.284790 571.539307,810.277161 576.756226,810.286804 
	C582.739807,810.297913 588.759705,810.739380 594.695984,810.219360 
	C599.915100,809.762085 603.326843,811.128906 604.846924,816.675537 
z"/>
<path fill="#F4F101" opacity="1.000000" stroke="none" 
	d="
M519.179077,437.465881 
	C519.793152,437.624847 520.834900,438.276276 520.771729,438.792572 
	C519.997986,445.120697 523.891235,445.079803 528.492493,445.052002 
	C551.295410,444.914001 574.099609,444.979675 596.903320,445.019684 
	C599.043518,445.023438 601.183228,445.348938 603.656616,445.767792 
	C576.294922,446.078491 548.599792,446.146454 520.431213,445.827820 
	C519.741516,444.967377 519.525330,444.493561 519.309082,444.019714 
	C519.237122,441.978302 519.165161,439.936920 519.179077,437.465881 
z"/>
<path fill="#F4F101" opacity="1.000000" stroke="none" 
	d="
M963.481262,843.091003 
	C964.422974,842.698242 965.830017,842.046082 967.238281,842.043335 
	C995.612000,841.986755 1023.985718,842.000488 1052.359497,842.026550 
	C1053.335571,842.027466 1054.311279,842.302368 1055.631226,842.674316 
	C1039.399170,843.008362 1022.823181,843.165466 1006.246948,843.212280 
	C992.147217,843.252075 978.047119,843.164917 963.481262,843.091003 
z"/>
<path fill="#F4F101" opacity="1.000000" stroke="none" 
	d="
M619.694092,977.716919 
	C619.880554,962.766418 620.017700,948.137024 620.130249,933.507385 
	C620.165833,928.879761 620.135803,924.251587 621.005554,919.625793 
	C621.005554,928.377258 621.004456,937.128784 621.005859,945.880249 
	C621.007202,954.697571 621.109375,963.516602 620.964111,972.331482 
	C620.908203,975.721497 622.044800,977.123657 625.562500,977.079407 
	C628.255981,977.045471 630.959229,977.789062 633.819092,978.535034 
	C630.287415,978.976868 626.594788,979.070496 622.346863,978.954102 
	C621.446960,978.598694 621.182739,978.693176 620.998901,979.027344 
	C620.544373,978.697510 620.089783,978.367737 619.694092,977.716919 
z"/>
<path fill="#DAE20C" opacity="1.000000" stroke="none" 
	d="
M952.458069,753.283630 
	C952.800293,752.500000 953.506226,751.331299 954.404907,751.157227 
	C963.293213,749.435303 972.212036,747.869507 981.129517,746.301453 
	C981.561707,746.225525 982.062622,746.539856 982.801147,746.907837 
	C973.017578,749.215576 962.964417,751.287842 952.458069,753.283630 
z"/>
<path fill="#F4F101" opacity="1.000000" stroke="none" 
	d="
M247.554626,843.118408 
	C248.030151,842.702087 248.964157,842.036865 249.900330,842.033813 
	C267.942902,841.974976 285.985718,841.988647 304.028442,842.017883 
	C304.637115,842.018860 305.245300,842.337708 305.869080,842.789062 
	C286.594330,843.105713 267.304199,843.141785 247.554626,843.118408 
z"/>
<path fill="#CDD813" opacity="1.000000" stroke="none" 
	d="
M455.371643,979.062134 
	C454.995544,978.514038 455.019775,978.083069 455.508667,977.337524 
	C459.955170,977.017334 463.936951,977.011719 468.194153,977.231812 
	C470.007996,977.306458 471.546448,977.155396 473.274475,977.019897 
	C473.464020,977.035522 473.843445,977.062866 473.843445,977.062866 
	C474.223846,977.026733 474.604218,976.990601 475.271667,976.937622 
	C474.571289,977.698547 473.606079,979.113098 472.592621,979.148560 
	C466.992249,979.344543 461.380066,979.204224 455.371643,979.062134 
z"/>
<path fill="#C0D411" opacity="1.000000" stroke="none" 
	d="
M964.736572,307.614624 
	C959.863586,307.341522 954.672058,306.877106 949.220459,306.143921 
	C954.112915,306.391174 959.265442,306.907227 964.736572,307.614624 
z"/>
<path fill="#F4F101" opacity="1.000000" stroke="none" 
	d="
M878.841309,948.913086 
	C878.872742,948.457153 878.904175,948.001221 878.984924,947.206055 
	C879.423340,947.316406 879.812500,947.766113 880.126343,948.563354 
	C879.946655,958.007202 879.843262,967.103516 879.730103,976.199646 
	C879.728210,976.351379 879.643921,976.556274 879.529114,976.633057 
	C879.453247,976.683838 879.253662,976.549500 879.040955,975.811035 
	C878.928833,966.387146 878.885071,957.650085 878.841309,948.913086 
z"/>
<path fill="#DCE203" opacity="1.000000" stroke="none" 
	d="
M393.351227,507.498840 
	C393.586151,512.429199 393.705719,517.811035 393.653839,523.558411 
	C393.400208,518.599426 393.318054,513.274902 393.351227,507.498840 
z"/>
<path fill="#CDD813" opacity="1.000000" stroke="none" 
	d="
M440.402283,978.917969 
	C444.719543,978.720154 449.371246,978.745300 454.471985,978.858154 
	C450.192902,979.010864 445.464844,979.075806 440.402283,978.917969 
z"/>
<path fill="#C0D411" opacity="1.000000" stroke="none" 
	d="
M973.762390,309.565369 
	C971.459473,309.390900 968.861450,309.002838 966.136963,308.283142 
	C968.496033,308.418274 970.981689,308.885010 973.762390,309.565369 
z"/>
<path fill="#DCE203" opacity="1.000000" stroke="none" 
	d="
M393.386597,563.507812 
	C393.626709,567.757629 393.750214,572.456177 393.720276,577.522400 
	C393.467926,573.245605 393.368958,568.601074 393.386597,563.507812 
z"/>
<path fill="#C0D411" opacity="1.000000" stroke="none" 
	d="
M980.772156,311.616821 
	C979.106445,311.435333 977.168762,311.036652 975.119873,310.322876 
	C976.839111,310.471710 978.669678,310.935638 980.772156,311.616821 
z"/>
<path fill="#F4F101" opacity="1.000000" stroke="none" 
	d="
M643.419556,978.998779 
	C644.276672,976.412537 645.879639,976.393738 647.861755,978.587646 
	C646.598328,978.963318 645.213379,979.023438 643.419556,978.998779 
z"/>
<path fill="#DCE203" opacity="1.000000" stroke="none" 
	d="
M393.411133,548.495605 
	C393.630127,550.472717 393.725555,552.871399 393.656982,555.595520 
	C393.424530,553.586365 393.356018,551.251709 393.411133,548.495605 
z"/>
<path fill="#F4F101" opacity="1.000000" stroke="none" 
	d="
M636.409180,978.973633 
	C637.267883,978.693176 638.517761,978.498657 639.876831,978.604919 
	C638.924133,978.956970 637.862183,979.008301 636.409180,978.973633 
z"/>
<path fill="#DCE203" opacity="1.000000" stroke="none" 
	d="
M393.382050,534.450806 
	C393.605621,535.491638 393.716919,536.927185 393.671509,538.637817 
	C393.433136,537.557068 393.351471,536.201355 393.382050,534.450806 
z"/>
<path fill="#DCE203" opacity="1.000000" stroke="none" 
	d="
M519.190552,444.321472 
	C519.525330,444.493561 519.741516,444.967377 519.975708,445.707397 
	C519.686462,445.523468 519.379211,445.073334 519.190552,444.321472 
z"/>
<path fill="#DCE203" opacity="1.000000" stroke="none" 
	d="
M393.405884,502.979065 
	C393.637024,503.291260 393.715729,503.851685 393.655396,504.667358 
	C393.428741,504.357483 393.341095,503.792419 393.405884,502.979065 
z"/>
<path fill="#DAE104" opacity="1.000000" stroke="none" 
	d="
M621.100342,979.139404 
	C621.182739,978.693176 621.446960,978.598694 621.892456,978.870117 
	C621.993286,978.996155 621.652222,979.254150 621.652222,979.254150 
	C621.652222,979.254150 621.201721,979.251526 621.100342,979.139404 
z"/>
<path fill="#DCE203" opacity="1.000000" stroke="none" 
	d="
M395.684204,501.944275 
	C395.413361,502.275452 394.829895,502.489075 393.934021,502.605896 
	C394.204926,502.281647 394.788269,502.054199 395.684204,501.944275 
z"/>
<path fill="#044E69" opacity="1.000000" stroke="none" 
	d="
M753.003662,389.008026 
	C769.653442,388.923645 786.303162,388.779968 802.953003,388.766724 
	C842.430054,388.735321 881.908508,388.592407 921.382812,388.923370 
	C928.915283,388.986481 936.841125,389.863892 943.877075,392.361420 
	C964.164856,399.562805 972.724426,415.711090 974.313721,436.537109 
	C973.646423,438.223846 973.052917,439.548309 973.051880,440.873199 
	C973.005188,500.565765 972.999268,560.258362 973.068542,619.950928 
	C973.070496,621.606689 973.945068,623.261475 974.412781,624.916687 
	C972.773926,652.653809 952.407471,670.829529 922.938293,670.843506 
	C866.669067,670.870178 810.399902,670.891907 753.598816,670.468628 
	C753.041931,667.360168 752.994995,664.698853 752.995056,662.037476 
	C752.995117,571.027649 752.999756,480.017853 753.003662,389.008026 
z"/>
<path fill="#F4F101" opacity="1.000000" stroke="none" 
	d="
M752.643066,389.162598 
	C752.999756,480.017853 752.995117,571.027649 752.995056,662.037476 
	C752.994995,664.698853 753.041931,667.360168 753.144226,670.480957 
	C752.484680,668.974792 751.111633,667.011353 751.105103,665.043335 
	C750.976074,626.255859 751.004211,587.467773 751.003174,548.679871 
	C751.001831,497.573029 750.988525,446.466125 751.057251,395.359375 
	C751.059998,393.344788 751.856079,391.331238 752.643066,389.162598 
z"/>
<path fill="#00357B" opacity="1.000000" stroke="none" 
	d="
M974.544800,624.543091 
	C973.945068,623.261475 973.070496,621.606689 973.068542,619.950928 
	C972.999268,560.258362 973.005188,500.565765 973.051880,440.873199 
	C973.052917,439.548309 973.646423,438.223846 974.240479,436.937073 
	C974.634827,437.437531 974.752197,437.900177 974.946167,439.156189 
	C975.032837,454.078674 975.040405,468.207733 975.053345,482.336823 
	C975.095337,528.212402 975.139221,574.088013 975.065308,620.220093 
	C974.994324,620.658997 975.040466,620.841248 975.086670,621.023560 
	C974.950073,622.072205 974.813477,623.120850 974.544800,624.543091 
z"/>
<path fill="#F4F101" opacity="1.000000" stroke="none" 
	d="
M975.182434,619.963562 
	C975.139221,574.088013 975.095337,528.212402 975.053345,482.336823 
	C975.040405,468.207733 975.032837,454.078674 975.087280,439.486847 
	C975.764404,440.418732 976.910828,441.812592 976.912903,443.208099 
	C976.997742,501.973083 976.981323,560.738281 976.958435,619.503479 
	C976.958313,619.966919 976.697876,620.430237 976.193787,620.743042 
	C975.689575,620.304321 975.474182,620.094666 975.182434,619.963562 
z"/>
<path fill="#C0D411" opacity="1.000000" stroke="none" 
	d="
M975.065308,620.220093 
	C975.474182,620.094666 975.689575,620.304321 975.918884,620.803589 
	C976.009155,621.014709 975.547974,621.022461 975.317322,621.023010 
	C975.040466,620.841248 974.994324,620.658997 975.065308,620.220093 
z"/>
<path fill="#DBE204" opacity="1.000000" stroke="none" 
	d="
M878.388672,948.930603 
	C878.885071,957.650085 878.928833,966.387146 878.950806,975.601196 
	C874.180420,976.397705 869.432312,976.983032 864.682922,976.994080 
	C830.702820,977.073181 796.722473,977.036255 762.742188,977.033997 
	C755.683777,977.033508 755.328369,976.262451 756.322449,969.118469 
	C756.835205,965.433655 755.917236,961.573364 755.984131,957.798340 
	C756.160950,947.832520 756.768738,937.869385 756.747986,927.906128 
	C756.722412,915.609680 756.079529,903.315491 755.984192,891.018066 
	C755.842407,872.729370 755.945984,854.438721 755.946350,836.148926 
	C755.946472,829.685913 756.009216,823.222107 755.927917,816.760132 
	C755.885681,813.400635 757.337585,811.901794 760.720764,811.934326 
	C768.715332,812.011292 776.712402,812.041748 784.705872,811.920410 
	C787.963379,811.870911 789.113098,813.226562 789.076904,816.394470 
	C788.970337,825.721130 789.047180,835.049866 789.047119,844.377747 
	C789.046875,876.525757 789.041321,908.673767 789.045349,940.821777 
	C789.046143,947.678467 790.159363,949.000671 797.176819,948.917236 
	C811.471375,948.747437 825.762451,948.072083 840.055542,948.052551 
	C852.681946,948.035278 865.309204,948.625854 878.388672,948.930603 
z"/>
<path fill="#DAE103" opacity="1.000000" stroke="none" 
	d="
M473.892578,976.589722 
	C473.843445,977.062866 473.464020,977.035522 472.842529,977.021484 
	C470.786926,977.007019 469.352844,977.006531 467.918732,977.006104 
	C463.936951,977.011719 459.955170,977.017334 455.518433,977.013916 
	C452.230957,977.005920 449.374237,976.772461 446.571442,977.061707 
	C442.089508,977.524353 440.900635,975.641113 440.927002,971.332458 
	C441.089081,944.841003 441.005859,918.348022 441.002197,891.855591 
	C441.000092,876.526611 440.994171,861.197632 440.901215,845.112488 
	C440.210785,843.902039 439.609070,843.447754 439.003784,842.996704 
	C439.000244,843.000000 439.005798,842.992859 439.005798,842.992859 
	C437.073914,842.678528 435.143768,842.104736 433.209900,842.091919 
	C420.884491,842.010315 408.551239,841.809692 396.235657,842.168213 
	C391.020569,842.320068 389.563843,840.512085 389.864227,835.560791 
	C390.246826,829.254456 390.077576,822.904053 389.909180,816.579041 
	C389.816895,813.112610 391.169769,811.905701 394.602783,811.911438 
	C436.910614,811.981750 479.218658,811.984436 521.526489,811.907532 
	C525.089233,811.901062 526.167297,813.365356 526.096741,816.698975 
	C525.952209,823.525146 525.914612,830.360535 526.110046,837.184204 
	C526.216553,840.901978 524.772766,842.132812 521.127869,842.094360 
	C507.970612,841.955688 494.810516,841.999207 481.652649,842.112000 
	C479.777161,842.128052 477.908173,842.904663 475.830200,843.702881 
	C475.083099,846.183716 474.075409,848.289612 474.069794,850.398132 
	C473.957672,892.304077 473.961426,934.210388 473.892578,976.589722 
z"/>
<path fill="#6A963C" opacity="1.000000" stroke="none" 
	d="
M439.407532,844.425903 
	C423.130249,844.030396 406.951691,843.894287 390.318420,843.601929 
	C403.776093,843.312866 417.688446,843.178955 431.600769,843.048340 
	C433.756317,843.028076 435.912018,843.023682 438.536713,843.002441 
	C439.005798,842.992859 439.000244,843.000000 439.267334,843.410156 
	C439.709686,844.096252 439.884918,844.372131 440.060181,844.648010 
	C439.875549,844.660461 439.690918,844.672913 439.407532,844.425903 
z"/>
<path fill="#CDD813" opacity="1.000000" stroke="none" 
	d="
M440.166138,844.708618 
	C439.884918,844.372131 439.709686,844.096252 439.270874,843.406921 
	C439.609070,843.447754 440.210785,843.902039 440.901550,844.638916 
	C440.749878,844.876953 440.510376,844.826172 440.166138,844.708618 
z"/>
<path fill="#F4F101" opacity="1.000000" stroke="none" 
	d="
M468.194153,977.231812 
	C469.352844,977.006531 470.786926,977.007019 472.652954,977.005859 
	C471.546448,977.155396 470.007996,977.306458 468.194153,977.231812 
z"/>
</svg>